Coordinates
version=1
nRows=85
nColumns=19
inDegrees=yes

Units are S.I. units (second, meters, Newtons, ...)
Angles are in degrees.

endheader
time	1_Force_X	1_Force_Y	1_Force_Z	1_Moment_X	1_Moment_Y	1_Moment_Z	1_COP_X	1_COP_Y	1_COP_Z	2_Force_X	2_Force_Y	2_Force_Z	2_Moment_X	2_Moment_Y	2_Moment_Z	2_COP_X	2_COP_Y	2_COP_Z
1.6800	35.859	1107.048	26.944	48.075	20.933	43.230	37.935	0.000	-44.581	29.116	1085.528	-12.063	37.183	-19.687	-38.069	-35.999	0.000	-34.199
1.6825	35.013	1100.290	25.513	48.382	21.098	42.701	37.720	0.000	-45.075	30.166	1086.047	-11.924	37.231	-19.557	-38.122	-36.075	0.000	-34.233
1.6850	34.919	1093.008	24.608	48.623	21.291	42.171	37.488	0.000	-45.558	31.479	1083.471	-12.494	37.387	-19.428	-37.896	-36.009	0.000	-34.433
1.6875	34.040	1086.442	24.726	48.933	21.586	41.799	37.407	0.000	-46.124	32.135	1082.096	-12.799	37.298	-19.390	-37.618	-35.826	0.000	-34.382
1.6900	33.765	1079.321	22.890	48.975	21.695	41.323	37.222	0.000	-46.389	32.926	1077.798	-13.812	37.407	-19.269	-37.443	-35.842	0.000	-34.574
1.6925	33.016	1071.346	22.340	48.993	21.813	40.829	37.066	0.000	-46.728	33.979	1074.013	-14.869	37.802	-19.203	-37.339	-35.917	0.000	-35.017
1.6950	32.709	1065.288	22.848	49.256	21.988	40.282	36.775	0.000	-47.262	34.596	1071.089	-15.923	37.824	-19.119	-37.043	-35.766	0.000	-35.086
1.6975	32.532	1059.911	22.820	49.187	22.116	39.859	36.568	0.000	-47.435	34.948	1066.790	-16.675	37.865	-19.062	-36.869	-35.763	0.000	-35.232
1.7000	32.134	1053.146	22.310	49.294	22.197	39.347	36.332	0.000	-47.819	34.734	1062.320	-17.523	38.236	-19.006	-36.851	-35.889	0.000	-35.691
1.7025	32.179	1047.945	22.634	49.292	22.344	38.942	36.122	0.000	-48.068	34.391	1057.503	-18.760	38.188	-18.930	-36.729	-35.924	0.000	-35.752
1.7050	32.047	1042.743	22.737	49.267	22.444	38.536	35.917	0.000	-48.288	33.780	1054.065	-19.300	38.383	-18.929	-36.520	-35.817	0.000	-36.029
1.7075	31.867	1037.536	22.309	49.264	22.526	38.078	35.662	0.000	-48.509	33.128	1049.766	-20.058	38.401	-18.881	-36.416	-35.837	0.000	-36.159
1.7100	30.986	1033.897	22.588	49.238	22.552	37.603	35.366	0.000	-48.667	32.298	1044.954	-20.382	38.418	-18.851	-36.242	-35.801	0.000	-36.325
1.7125	30.200	1030.609	23.483	49.103	22.561	37.321	35.239	0.000	-48.730	32.126	1043.575	-21.041	38.284	-18.888	-36.068	-35.674	0.000	-36.214
1.7150	29.328	1025.061	24.515	49.031	22.502	36.776	34.934	0.000	-48.968	31.944	1040.145	-20.354	38.436	-18.831	-35.860	-35.585	0.000	-36.509
1.7175	28.455	1021.258	25.458	49.116	22.529	36.441	34.774	0.000	-49.276	31.895	1038.607	-19.704	38.503	-18.711	-35.705	-35.486	0.000	-36.656
1.7200	28.018	1016.920	25.868	49.156	22.471	35.967	34.473	0.000	-49.543	32.500	1035.347	-19.009	38.391	-18.645	-35.444	-35.374	0.000	-36.693
1.7225	27.795	1013.278	26.057	49.263	22.534	35.456	34.102	0.000	-49.835	33.675	1032.093	-18.534	38.703	-18.431	-35.167	-35.271	0.000	-37.130
1.7250	26.825	1009.995	25.899	49.659	22.579	35.069	33.872	0.000	-50.382	34.721	1029.348	-18.583	38.946	-18.311	-34.803	-35.058	0.000	-37.462
1.7275	26.700	1006.366	26.709	50.011	22.670	34.751	33.683	0.000	-50.950	35.634	1025.743	-18.503	39.099	-18.264	-34.368	-34.800	0.000	-37.745
1.7300	26.966	1001.333	26.944	50.316	22.667	34.206	33.293	0.000	-51.521	36.983	1021.803	-17.941	39.411	-18.005	-33.987	-34.623	0.000	-38.219
1.7325	26.928	996.827	27.533	50.732	22.655	33.678	32.914	0.000	-52.198	38.291	1019.231	-17.944	39.655	-17.884	-33.657	-34.447	0.000	-38.554
1.7350	27.335	993.367	28.296	51.261	22.653	33.448	32.778	0.000	-52.947	39.120	1016.655	-18.213	39.942	-17.829	-33.240	-34.162	0.000	-38.920
1.7375	27.788	987.818	29.194	51.676	22.604	33.043	32.529	0.000	-53.706	40.340	1012.537	-18.355	40.384	-17.681	-32.667	-33.792	0.000	-39.507
1.7400	27.584	981.239	30.145	52.423	22.517	32.567	32.269	0.000	-54.871	41.297	1007.734	-18.064	40.936	-17.504	-32.408	-33.740	0.000	-40.254
1.7425	27.593	976.730	30.777	52.927	22.402	32.057	31.894	0.000	-55.669	42.039	1003.612	-18.516	41.530	-17.439	-32.025	-33.533	0.000	-40.989
1.7450	27.566	972.399	31.189	53.741	22.167	31.863	31.836	0.000	-56.773	42.347	999.831	-19.404	41.927	-17.355	-31.556	-33.206	0.000	-41.498
1.7475	27.452	967.206	32.003	54.555	22.015	31.528	31.664	0.000	-57.957	43.045	997.255	-19.768	42.743	-17.319	-31.296	-33.064	0.000	-42.405
1.7500	27.249	961.492	32.686	55.456	21.835	31.105	31.420	0.000	-59.271	43.263	992.102	-20.314	43.358	-17.244	-30.914	-32.862	0.000	-43.218
1.7525	27.085	955.770	32.659	56.158	21.636	30.717	31.208	0.000	-60.359	43.439	988.321	-21.032	44.018	-17.226	-30.514	-32.592	0.000	-44.016
1.7550	26.973	949.887	33.299	57.150	21.484	30.469	31.144	0.000	-61.807	43.136	984.024	-21.927	44.656	-17.160	-30.305	-32.510	0.000	-44.813
1.7575	27.566	943.291	33.800	58.005	21.192	30.082	30.920	0.000	-63.170	43.573	978.871	-22.343	45.580	-17.086	-30.184	-32.579	0.000	-45.971
1.7600	27.766	936.872	34.300	58.685	20.881	29.905	30.931	0.000	-64.352	43.486	974.406	-22.891	46.395	-16.993	-30.010	-32.548	0.000	-46.989
1.7625	27.566	932.546	34.714	59.721	20.599	29.746	30.912	0.000	-65.781	42.659	970.971	-23.478	46.791	-16.890	-29.715	-32.321	0.000	-47.534
1.7650	27.805	926.296	34.463	60.467	20.280	29.569	30.915	0.000	-67.018	42.173	967.022	-23.327	47.516	-16.908	-29.438	-32.144	0.000	-48.483
1.7675	28.174	919.521	33.947	61.279	19.931	29.305	30.835	0.000	-68.369	41.777	962.046	-23.218	48.044	-16.750	-29.317	-32.167	0.000	-49.286
1.7700	28.548	912.924	33.695	61.938	19.621	29.251	30.977	0.000	-69.571	41.692	956.891	-24.116	48.770	-16.685	-28.917	-31.921	0.000	-50.264
1.7725	28.741	906.323	33.224	62.793	19.245	28.969	30.880	0.000	-70.998	41.834	952.586	-26.237	49.694	-16.666	-28.656	-31.799	0.000	-51.357
1.7750	28.892	900.076	32.886	63.562	18.944	28.827	30.926	0.000	-72.328	42.506	948.968	-28.919	50.576	-16.565	-28.516	-31.806	0.000	-52.351
1.7775	29.830	891.903	31.175	64.221	18.634	28.738	31.058	0.000	-73.642	44.484	942.095	-31.035	51.505	-16.240	-28.064	-31.658	0.000	-53.612
1.7800	30.147	887.036	30.434	64.791	18.389	28.526	30.972	0.000	-74.650	45.898	937.961	-33.847	52.521	-16.120	-27.733	-31.515	0.000	-54.791
1.7825	30.607	881.478	30.356	65.384	18.088	28.490	31.101	0.000	-75.789	46.700	933.313	-36.578	53.558	-16.001	-27.367	-31.321	0.000	-56.038
1.7850	30.803	878.523	30.137	65.867	17.733	28.701	31.434	0.000	-76.583	47.283	930.039	-39.124	54.000	-15.890	-26.932	-30.993	0.000	-56.583
1.7875	31.437	876.085	30.578	66.151	17.444	28.771	31.568	0.000	-77.143	48.514	925.053	-40.628	54.882	-15.741	-26.637	-30.904	0.000	-57.765
1.7900	31.936	872.776	30.712	66.302	17.172	28.771	31.660	0.000	-77.615	49.397	921.448	-42.082	55.549	-15.464	-26.255	-30.655	0.000	-58.639
1.7925	32.174	867.735	30.718	66.629	16.863	28.701	31.748	0.000	-78.442	49.660	917.670	-42.580	56.188	-15.362	-26.064	-30.588	0.000	-59.550
1.7950	32.186	864.429	30.325	67.000	16.535	28.648	31.806	0.000	-79.151	48.879	914.919	-43.426	56.539	-15.297	-25.994	-30.566	0.000	-60.070
1.7975	33.077	860.071	30.017	67.150	16.273	28.507	31.755	0.000	-79.710	47.354	912.012	-43.360	57.117	-14.944	-26.135	-30.742	0.000	-60.897
1.8000	32.559	857.636	29.492	67.544	15.936	28.455	31.811	0.000	-80.367	46.359	909.611	-44.295	57.628	-14.667	-26.189	-30.832	0.000	-61.571
1.8025	32.220	853.116	28.793	67.870	15.599	28.402	31.933	0.000	-81.139	46.235	906.347	-45.400	57.894	-14.499	-25.998	-30.727	0.000	-62.028
1.8050	32.320	850.676	28.485	68.286	15.244	28.367	31.978	0.000	-81.843	46.153	902.914	-46.158	58.359	-14.286	-25.773	-30.591	0.000	-62.738
1.8075	32.512	848.064	28.796	68.656	14.897	28.245	31.921	0.000	-82.549	46.815	900.169	-47.083	58.716	-14.027	-25.530	-30.450	0.000	-63.277
1.8100	32.797	845.795	29.103	69.027	14.440	28.333	32.095	0.000	-83.225	47.045	897.762	-48.707	58.917	-13.824	-25.217	-30.196	0.000	-63.587
1.8125	31.889	843.710	28.842	69.333	14.020	28.474	32.389	0.000	-83.778	48.101	895.704	-49.761	59.430	-13.565	-24.992	-30.069	0.000	-64.250
1.8150	31.884	842.307	26.988	69.728	13.796	28.352	32.297	0.000	-84.287	49.250	892.782	-51.559	59.853	-13.297	-24.714	-29.916	0.000	-64.840
1.8175	32.165	839.178	26.728	70.365	13.449	28.422	32.485	0.000	-85.347	50.571	889.864	-52.920	60.476	-12.992	-24.558	-29.908	0.000	-65.681
1.8200	32.697	835.162	25.404	70.559	13.140	28.229	32.379	0.000	-85.916	51.890	887.128	-53.447	60.860	-12.492	-24.386	-29.876	0.000	-66.288
1.8225	33.009	831.846	23.726	70.711	12.869	28.352	32.637	0.000	-86.350	53.428	884.895	-54.849	61.350	-12.271	-24.090	-29.698	0.000	-66.935
1.8250	33.637	828.537	22.888	71.085	12.607	28.509	32.922	0.000	-87.100	54.579	883.005	-56.729	61.621	-11.956	-23.899	-29.606	0.000	-67.285
1.8275	34.834	824.690	21.603	71.323	12.242	28.492	32.987	0.000	-87.724	55.688	882.314	-58.875	62.399	-11.745	-23.743	-29.510	0.000	-68.108
1.8300	34.887	821.552	20.721	71.562	11.914	28.510	33.130	0.000	-88.301	56.411	880.931	-62.070	62.956	-11.468	-23.655	-29.495	0.000	-68.680
1.8325	35.865	817.194	19.265	71.869	11.661	28.667	33.443	0.000	-89.067	56.653	879.889	-65.265	63.313	-11.302	-23.411	-29.266	0.000	-68.999
1.8350	36.891	811.270	18.559	71.864	11.371	28.667	33.627	0.000	-89.671	57.459	875.251	-67.505	63.848	-10.848	-23.499	-29.565	0.000	-69.855
1.8375	37.560	805.692	17.235	71.881	11.071	28.649	33.797	0.000	-90.239	57.214	873.016	-69.703	64.360	-10.580	-23.256	-29.350	0.000	-70.504
1.8400	37.972	799.949	16.798	71.921	10.771	28.683	34.057	0.000	-90.911	56.883	869.059	-72.163	64.494	-10.292	-23.134	-29.327	0.000	-70.847
1.8425	38.476	792.813	16.891	71.913	10.396	28.489	34.087	0.000	-91.724	57.068	863.913	-73.402	64.764	-9.847	-22.718	-29.032	0.000	-71.513
1.8450	38.897	785.328	17.071	71.750	9.937	28.436	34.317	0.000	-92.401	57.122	857.387	-74.774	64.986	-9.485	-22.510	-29.016	0.000	-72.239
1.8475	39.054	776.283	17.432	71.476	9.534	28.243	34.454	0.000	-93.145	57.266	850.867	-76.231	65.057	-8.946	-22.234	-28.924	0.000	-72.793
1.8500	39.694	766.018	17.176	71.225	9.149	28.101	34.688	0.000	-94.049	56.793	843.144	-77.260	65.257	-8.509	-21.940	-28.817	0.000	-73.637
1.8525	40.195	755.572	17.095	70.749	8.782	27.626	34.504	0.000	-94.714	56.449	833.023	-77.811	65.281	-7.867	-21.664	-28.820	0.000	-74.525
1.8550	40.615	744.092	17.592	70.186	8.434	27.273	34.531	0.000	-95.448	55.709	823.069	-78.142	65.037	-7.382	-21.318	-28.711	0.000	-75.106
1.8575	41.251	732.085	17.557	69.600	8.095	26.833	34.451	0.000	-96.210	55.100	810.198	-78.563	64.506	-6.747	-20.886	-28.604	0.000	-75.612
1.8600	41.100	719.040	17.835	68.704	7.710	26.480	34.589	0.000	-96.727	54.005	796.640	-78.640	63.884	-6.205	-20.141	-28.097	0.000	-76.106
1.8625	40.644	702.871	18.870	67.562	7.333	25.811	34.453	0.000	-97.392	52.685	781.200	-77.495	62.952	-5.578	-19.535	-27.806	0.000	-76.476
1.8650	40.625	686.340	18.885	66.396	6.854	25.142	34.302	0.000	-98.039	50.649	763.371	-74.173	61.865	-4.829	-18.810	-27.389	0.000	-77.027
1.8675	39.464	665.995	19.351	64.653	6.411	24.315	34.175	0.000	-98.447	48.866	743.653	-69.799	60.266	-4.153	-18.050	-26.991	0.000	-77.178
1.8700	38.526	644.251	20.434	62.729	5.874	23.189	33.635	0.000	-98.858	47.214	719.466	-65.694	58.310	-3.438	-17.098	-26.481	0.000	-77.300
1.8725	37.096	618.679	20.022	60.582	5.308	21.887	33.011	0.000	-99.441	45.552	693.051	-60.719	56.086	-2.703	-15.782	-25.492	0.000	-77.352
1.8750	35.717	587.544	20.324	57.855	4.741	20.233	32.033	0.000	-100.090	43.848	664.057	-55.925	53.904	-1.930	-14.727	-24.911	0.000	-77.756
1.8775	33.810	552.947	19.576	55.064	4.257	18.823	31.621	0.000	-101.240	40.351	633.510	-51.318	51.473	-1.341	-13.566	-24.041	0.000	-77.980
1.8800	32.818	515.545	18.118	51.804	3.782	16.992	30.425	0.000	-102.131	35.498	599.189	-46.419	48.753	-0.621	-12.285	-22.925	0.000	-78.256
1.8825	31.037	475.879	16.309	48.276	3.110	15.108	29.142	0.000	-103.052	28.671	562.798	-40.916	45.271	-0.212	-11.021	-21.622	0.000	-77.550
1.8850	31.908	430.085	13.162	44.497	2.035	13.189	27.655	0.000	-104.901	20.654	521.436	-34.118	41.499	0.347	-9.618	-19.964	0.000	-77.032
1.8875	34.228	381.834	8.902	40.275	0.960	11.358	26.033	0.000	-106.587	14.296	476.115	-27.668	37.567	0.880	-8.232	-18.368	0.000	-76.686
1.8900	34.978	330.989	6.241	35.717	-0.273	9.352	23.813	0.000	-108.817	7.448	431.838	-19.686	33.418	1.505	-6.813	-16.266	0.000	-75.744
